HIERARCHY
ROOT Hips
{
	OFFSET 0.000000 89.005402 0.000000
	CHANNELS 6 Xposition Yposition Zposition Xrotation Yrotation Zrotation
	JOINT Spine
	{
		OFFSET 0.116900 10.681000 0.373400
		CHANNELS 3 Xrotation Yrotation Zrotation
		JOINT Spine1
		{
			OFFSET 0.000000 13.840401 0.053500
			CHANNELS 3 Xrotation Yrotation Zrotation
			JOINT Spine2
			{
				OFFSET 0.000000 14.712700 -0.366200
				CHANNELS 3 Xrotation Yrotation Zrotation
				JOINT Neck
				{
					OFFSET 0.000000 35.415497 -3.314200
					CHANNELS 3 Xrotation Yrotation Zrotation
					JOINT Head
					{
						OFFSET 0.000000 16.899200 1.218300
						CHANNELS 3 Xrotation Yrotation Zrotation
						JOINT HeadTop_End
						{
							OFFSET 0.000000 22.206207 2.192500
							CHANNELS 3 Xrotation Yrotation Zrotation
							End Site
							{
								OFFSET 0.000000 22.314178 0.000000
							}
						}
					}
				}
				JOINT LeftShoulder
				{
					OFFSET 12.896400 26.716293 -4.548400
					CHANNELS 3 Xrotation Yrotation Zrotation
					JOINT LeftArm
					{
						OFFSET 19.027000 -4.857010 -1.718400
						CHANNELS 3 Xrotation Yrotation Zrotation
						JOINT LeftForeArm
						{
							OFFSET 24.179897 0.000000 0.000000
							CHANNELS 3 Xrotation Yrotation Zrotation
							JOINT LeftHand
							{
								OFFSET 27.156403 0.000000 0.000000
								CHANNELS 3 Xrotation Yrotation Zrotation
								JOINT LeftHandIndex1
								{
									OFFSET 16.441200 0.000000 0.000000
									CHANNELS 3 Xrotation Yrotation Zrotation
									JOINT LeftHandIndex2
									{
										OFFSET 4.821899 0.000000 0.000000
										CHANNELS 3 Xrotation Yrotation Zrotation
										JOINT LeftHandIndex3
										{
											OFFSET 6.386497 0.000000 0.000000
											CHANNELS 3 Xrotation Yrotation Zrotation
											JOINT LeftHandIndex4
											{
												OFFSET 5.188988 0.000000 0.000000
												CHANNELS 3 Xrotation Yrotation Zrotation
												End Site
												{
													OFFSET -0.178703 5.185913 0.000177
												}
											}
										}
									}
								}
								JOINT LeftHandThumb1
								{
									OFFSET 6.534897 -5.032593 5.900300
									CHANNELS 3 Xrotation Yrotation Zrotation
									JOINT LeftHandThumb2
									{
										OFFSET 3.818176 -2.204422 2.204423
										CHANNELS 3 Xrotation Yrotation Zrotation
										JOINT LeftHandThumb3
										{
											OFFSET 3.252098 -1.877594 1.877601
											CHANNELS 3 Xrotation Yrotation Zrotation
											JOINT LeftHandThumb4
											{
												OFFSET 5.251778 -3.032120 3.032117
												CHANNELS 3 Xrotation Yrotation Zrotation
												End Site
												{
													OFFSET 0.000023 6.780014 0.000000
												}
											}
										}
									}
								}
							}
						}
					}
				}
				JOINT RightShoulder
				{
					OFFSET -12.896300 26.716293 -4.548400
					CHANNELS 3 Xrotation Yrotation Zrotation
					JOINT RightArm
					{
						OFFSET -19.027000 -4.857010 -1.718400
						CHANNELS 3 Xrotation Yrotation Zrotation
						JOINT RightForeArm
						{
							OFFSET -24.179897 0.000000 0.000000
							CHANNELS 3 Xrotation Yrotation Zrotation
							JOINT RightHand
							{
								OFFSET -27.156403 0.000000 0.000000
								CHANNELS 3 Xrotation Yrotation Zrotation
								JOINT RightHandThumb1
								{
									OFFSET -6.591202 -4.852203 5.988100
									CHANNELS 3 Xrotation Yrotation Zrotation
									JOINT RightHandThumb2
									{
										OFFSET -3.818176 -2.204422 2.204423
										CHANNELS 3 Xrotation Yrotation Zrotation
										JOINT RightHandThumb3
										{
											OFFSET -3.252098 -1.877594 1.877601
											CHANNELS 3 Xrotation Yrotation Zrotation
											JOINT RightHandThumb4
											{
												OFFSET -5.251778 -3.032120 3.032117
												CHANNELS 3 Xrotation Yrotation Zrotation
												End Site
												{
													OFFSET -0.000023 6.780014 0.000000
												}
											}
										}
									}
								}
								JOINT RightHandIndex1
								{
									OFFSET -16.029404 0.000000 0.000000
									CHANNELS 3 Xrotation Yrotation Zrotation
									JOINT RightHandIndex2
									{
										OFFSET -5.213303 0.000000 0.000000
										CHANNELS 3 Xrotation Yrotation Zrotation
										JOINT RightHandIndex3
										{
											OFFSET -6.386528 0.000000 0.000000
											CHANNELS 3 Xrotation Yrotation Zrotation
											JOINT RightHandIndex4
											{
												OFFSET -5.189026 0.000000 0.000000
												CHANNELS 3 Xrotation Yrotation Zrotation
												End Site
												{
													OFFSET 0.236702 5.183624 0.001972
												}
											}
										}
									}
								}
							}
						}
					}
				}
			}
		}
	}
	JOINT LeftUpLeg
	{
		OFFSET 14.073000 -7.904099 -1.463000
		CHANNELS 3 Xrotation Yrotation Zrotation
		JOINT LeftLeg
		{
			OFFSET -0.109806 -34.073280 4.093200
			CHANNELS 3 Xrotation Yrotation Zrotation
			JOINT LeftFoot
			{
				OFFSET 0.109806 -29.899420 -6.319000
				CHANNELS 3 Xrotation Yrotation Zrotation
				JOINT LeftToeBase
				{
					OFFSET 1.551100 -14.988700 20.535801
					CHANNELS 3 Xrotation Yrotation Zrotation
					JOINT LeftToe_End
					{
						OFFSET 0.221200 0.570800 13.248301
						CHANNELS 3 Xrotation Yrotation Zrotation
						End Site
						{
							OFFSET 0.000000 13.262435 0.000000
						}
					}
				}
			}
		}
	}
	JOINT RightUpLeg
	{
		OFFSET -13.839300 -7.904099 -1.463000
		CHANNELS 3 Xrotation Yrotation Zrotation
		JOINT RightLeg
		{
			OFFSET 0.109694 -34.073219 4.093300
			CHANNELS 3 Xrotation Yrotation Zrotation
			JOINT RightFoot
			{
				OFFSET -0.109694 -29.899384 -6.319200
				CHANNELS 3 Xrotation Yrotation Zrotation
				JOINT RightToeBase
				{
					OFFSET -1.551100 -14.988700 20.535801
					CHANNELS 3 Xrotation Yrotation Zrotation
					JOINT RightToe_End
					{
						OFFSET -0.221200 0.570900 13.248299
						CHANNELS 3 Xrotation Yrotation Zrotation
						End Site
						{
							OFFSET 0.000000 13.262440 0.000000
						}
					}
				}
			}
		}
	}
}
MOTION
Frames: 8
Frame Time: 0.033333
11.531094 79.093620 10.550122 1.959357 124.309443 -1.803908 1.806147 -0.834794 9.366218 1.727108 -0.394763 1.289556 1.707945 -0.406771 1.283298 3.293732 0.629627 -1.783278 21.950047 4.561751 -11.254875 -0.000001 0.000002 -0.000001 4.177403 3.781558 1.261746 -52.766825 -11.890983 -8.862555 -0.000005 -57.334131 0.000001 -16.522462 -5.800302 15.112502 6.794416 -1.344485 -1.218513 0.002781 0.180499 -1.761563 0.149364 -1.315770 12.952050 -0.000000 0.000000 0.000001 14.846033 7.707535 -11.767246 -7.378432 42.408665 25.671442 13.692249 66.577645 11.556098 0.000004 -0.000001 0.000000 2.203689 -3.960475 7.517502 -43.876312 1.771722 15.887802 0.002248 92.759153 -0.002233 3.938917 10.634984 -22.264887 10.547796 -1.167920 14.420184 -7.962490 -44.178661 -26.941563 -0.822072 -73.121225 -25.171190 -0.000001 -0.000002 0.000001 7.744045 -5.164583 -5.867247 0.002211 -0.143787 1.765315 0.020118 0.432778 -5.320302 0.000004 -0.000003 0.000001 -21.429022 0.817014 1.277712 50.049987 2.957177 -5.228523 -27.497855 0.646467 5.448046 -6.685371 -0.000010 0.000000 0.000001 0.000000 -0.000000 -32.893990 11.930431 -7.925650 49.983123 7.557437 7.791211 -18.180843 -0.376480 2.214941 -10.460896 -0.000003 0.000005 -0.000000 -0.000002 0.000000 
12.883895 78.614365 10.696844 0.349282 134.945181 -2.725789 1.500046 -4.176491 10.661576 1.919039 -1.233916 1.977817 1.890766 -1.243962 1.956547 2.743515 0.781235 -2.016862 20.062327 4.683096 -10.601935 -0.000001 0.000003 -0.000000 5.798336 2.590632 7.674331 -56.784588 -18.563394 -10.374762 0.000006 -38.029028 -0.000000 -15.284256 -7.819838 13.063043 7.602640 -1.773795 2.070314 0.002773 0.180493 -1.761600 0.188437 -1.475372 14.556503 0.000001 -0.000001 -0.000000 14.846036 7.707519 -11.767234 -7.378407 42.408672 25.671416 13.692254 66.577576 11.556149 -0.000004 0.000000 -0.000001 2.248170 -7.168617 15.799752 -33.776119 0.322285 20.566757 -0.000214 95.337112 0.000156 5.999082 12.496296 -23.540085 10.547736 -1.167986 14.420782 -7.963467 -44.179153 -26.942972 -0.824199 -73.123602 -25.172958 -0.000000 -0.000001 0.000001 7.534888 -5.677027 -2.577780 0.002208 -0.143741 1.764678 0.003846 0.189386 -2.325447 0.000001 -0.000002 0.000002 -27.154247 -0.157085 4.263058 55.367535 0.610399 -4.502827 -26.419165 -2.988001 6.391014 -8.176401 -0.000015 -0.000002 -0.000000 -0.000001 -0.000001 -29.303219 12.539280 -5.479269 48.229567 4.890137 7.763693 -22.595116 -0.827189 2.932073 -6.432061 -0.000005 0.000005 -0.000000 -0.000000 -0.000000 
14.201654 77.581360 10.932274 -0.695748 145.272632 -4.299165 1.520538 -6.534597 11.912933 2.101622 -1.836124 2.632714 2.067823 -1.841819 2.602097 2.236310 0.841891 -2.169752 17.921114 3.245230 -9.651510 -0.000000 -0.000001 -0.000000 7.443694 1.581481 13.283794 -62.054659 -25.225752 -12.970503 -0.000015 -20.963266 -0.000006 -14.493858 -9.786675 11.876277 8.320361 -2.054726 4.793443 0.002777 0.180498 -1.761581 0.198058 -1.511908 14.925362 -0.000002 0.000000 -0.000000 14.846050 7.707546 -11.767233 -7.378406 42.408634 25.671387 13.692292 66.577610 11.556123 0.000001 0.000000 -0.000002 2.733967 -9.367369 22.491355 -25.983793 0.669333 24.930781 -0.000508 95.427428 0.000483 8.219554 13.831668 -25.490005 10.547741 -1.167979 14.420778 -7.963367 -44.179142 -26.942974 -0.824299 -73.123602 -25.172900 0.000001 0.000000 -0.000001 7.440391 -6.076925 -0.229218 0.002216 -0.143733 1.764732 0.000066 0.024547 -0.301372 0.000001 0.000001 -0.000002 -34.718627 -0.839863 7.439975 64.158344 -0.983333 -3.400463 -25.252883 -4.094605 3.510413 -9.745404 -0.000027 0.000001 -0.000000 0.000002 0.000000 -26.772658 11.935353 -2.084955 50.081775 -2.029343 6.286066 -25.209062 -1.965205 6.374863 -4.216052 0.000002 0.000001 -0.000000 0.000001 0.000000 
15.509627 76.534668 11.189341 -1.197077 154.696654 -6.070690 2.027346 -7.679802 12.793015 2.220042 -2.144511 3.069014 2.180694 -2.148675 3.037181 1.874655 0.815616 -2.177312 15.806998 1.333669 -8.746564 0.000002 0.000003 -0.000001 8.738750 0.528196 17.237371 -68.495603 -30.402842 -16.368495 -0.000005 -10.617235 -0.000001 -14.105607 -10.990144 11.984374 8.829851 -2.205702 6.643129 0.002778 0.180489 -1.761572 0.197959 -1.511524 14.921491 0.000003 -0.000001 0.000000 14.846031 7.707544 -11.767229 -7.378406 42.408645 25.671391 13.692274 66.577631 11.556130 -0.000002 -0.000000 -0.000002 3.095097 -10.231866 27.098627 -20.969746 2.587724 27.782795 -0.001539 94.590846 0.001494 10.322008 14.611716 -28.343060 10.547782 -1.167947 14.420541 -7.962941 -44.178951 -26.942398 -0.823383 -73.122639 -25.172094 -0.000002 -0.000000 0.000000 7.410764 -6.290044 0.964171 0.002217 -0.143751 1.765002 0.000310 -0.054624 0.670509 0.000001 0.000002 -0.000001 -41.979169 -1.018893 11.900084 72.850436 -2.078145 -3.421479 -22.423873 -2.538369 -1.874576 -11.103497 0.000011 -0.000002 0.000000 -0.000001 -0.000000 -24.398373 7.828438 0.518889 52.387343 -6.915170 4.968490 -28.037436 -4.584379 7.903449 -3.810645 -0.000014 -0.000001 -0.000000 -0.000000 0.000000 
16.779118 75.846230 11.360994 -1.174436 162.902539 -7.651403 2.963480 -7.757042 13.073682 2.277184 -2.178975 3.201545 2.231158 -2.187329 3.175051 1.729384 0.723170 -2.001285 14.350222 0.199617 -7.695855 0.000002 -0.000000 -0.000000 9.406525 -0.841740 18.908284 -74.675373 -32.943420 -19.590441 0.000005 -10.498105 -0.000006 -13.570302 -10.737438 13.286718 9.040111 -2.257225 7.389502 0.002776 0.180496 -1.761559 0.193956 -1.496429 14.769060 0.000002 -0.000000 -0.000000 14.846033 7.707547 -11.767243 -7.378429 42.408665 25.671440 13.692259 66.577610 11.556120 0.000001 -0.000000 -0.000002 3.021505 -9.866464 29.089806 -18.735002 5.562110 28.744380 -0.001951 93.969961 0.001974 12.262852 14.895688 -31.647494 10.547770 -1.167957 14.420450 -7.962845 -44.178866 -26.942211 -0.823094 -73.122305 -25.171911 -0.000000 -0.000001 0.000002 7.410333 -6.298485 1.006547 0.002221 -0.143769 1.765065 0.000312 -0.055106 0.676489 -0.000000 0.000002 -0.000000 -47.178671 -1.330568 17.768657 78.631699 -0.047993 -4.445026 -16.983776 -0.957473 -8.578069 -13.205312 -0.013296 0.885950 0.000000 0.000000 -0.000000 -21.171633 -0.274048 0.884128 53.174659 -6.906632 4.751480 -31.330272 -5.507653 6.483573 -4.114340 0.000024 0.000002 -0.000000 -0.000000 0.000000 
17.933693 75.801231 11.397665 -0.678080 169.791167 -8.972808 4.075886 -7.076078 12.791505 2.318262 -2.015202 3.197750 2.271129 -2.028681 3.178747 1.825608 0.593954 -1.684741 14.175987 0.143165 -6.165129 0.000001 0.000003 -0.000001 9.328485 -2.658765 18.048389 -78.654396 -33.266344 -21.624203 -0.000002 -19.732058 -0.000011 -12.789679 -9.432396 14.928842 8.919969 -2.228330 6.963483 0.002771 0.180489 -1.761572 0.195720 -1.503127 14.836433 0.000001 0.000000 -0.000001 14.846043 7.707547 -11.767233 -7.378439 42.408658 25.671430 13.692260 66.577617 11.556141 -0.000001 -0.000000 -0.000001 2.595147 -8.605908 28.358090 -19.476230 9.022724 28.287853 0.000266 93.909876 -0.000243 13.850188 14.612693 -34.256131 10.547771 -1.167975 14.420527 -7.962988 -44.178927 -26.942392 -0.823331 -73.122605 -25.172136 0.000001 -0.000001 0.000000 7.432077 -6.133192 0.082479 0.002229 -0.143757 1.764975 0.000023 0.010040 -0.123125 0.000000 -0.000000 -0.000001 -49.674323 -1.239559 24.132250 81.023297 3.949559 -6.073749 -11.221107 0.902856 -12.681909 -16.850898 -0.206197 3.466185 -0.000000 -0.000000 0.000000 -16.578370 -10.603149 -0.203113 51.817203 -6.715696 4.976931 -33.310795 -2.058677 5.568278 -4.141107 -0.000004 -0.000000 -0.000000 -0.000000 0.000000 
18.928831 76.466957 11.287436 0.108186 175.466344 -10.194314 5.005406 -5.964872 12.229346 2.348008 -1.744131 3.302746 2.311521 -1.754304 3.290110 2.136937 0.455065 -1.338273 15.428854 0.478801 -4.218120 -0.000003 0.000000 0.000000 8.531688 -4.794799 14.831865 -79.156346 -32.632902 -22.171066 0.000008 -34.082767 -0.000002 -12.238312 -8.192019 16.114540 8.506114 -2.113999 5.474382 0.002774 0.180488 -1.761582 0.198066 -1.511915 14.925357 -0.000000 0.000000 -0.000001 14.846046 7.707538 -11.767233 -7.378426 42.408648 25.671421 13.692237 66.577617 11.556164 -0.000002 -0.000003 -0.000001 2.064248 -6.835410 25.322879 -23.450812 12.253820 27.250645 -0.001927 94.178125 0.001846 14.471185 13.711579 -34.879095 10.547743 -1.167955 14.420577 -7.963056 -44.178982 -26.942501 -0.823543 -73.122824 -25.172285 0.000002 -0.000002 -0.000001 7.488683 -5.846598 -1.565487 0.002195 -0.143756 1.764902 0.001642 0.124371 -1.526851 -0.000000 0.000003 -0.000000 -49.921071 0.468558 28.754041 81.101475 7.680537 -7.008528 -9.243261 5.458481 -12.762181 -15.136155 -0.027595 1.280979 -0.000000 -0.000004 0.000000 -10.746555 -20.535358 -0.177436 47.624921 -3.266284 5.384988 -33.440818 -0.296505 2.957205 -3.837380 -0.000016 0.000001 -0.000000 0.000001 0.000000 
19.701258 77.651443 10.983788 0.856657 180.241302 -11.101703 5.364673 -4.789998 11.602249 2.319493 -1.443801 3.443226 2.299546 -1.441481 3.435077 2.594710 0.328270 -1.043592 17.616863 0.461909 -2.317055 -0.000000 -0.000000 0.000000 7.165156 -6.896985 9.760434 -75.658053 -31.699263 -21.268992 0.000008 -49.684828 -0.000001 -12.220714 -7.586893 16.820147 7.882870 -1.893798 3.152693 0.002772 0.180497 -1.761569 0.196891 -1.507515 14.880913 -0.000003 0.000000 0.000001 14.846036 7.707559 -11.767225 -7.378421 42.408651 25.671421 13.692222 66.577610 11.556156 -0.000002 -0.000002 -0.000001 1.594427 -4.915929 20.684354 -30.461411 14.521640 26.399139 -0.000837 94.341182 0.000784 13.496304 12.203043 -33.075437 10.547754 -1.167949 14.420575 -7.963021 -44.178978 -26.942468 -0.823542 -73.122796 -25.172278 -0.000000 0.000004 -0.000000 7.598795 -5.489036 -3.739132 0.002221 -0.143765 1.764951 0.008068 0.274191 -3.367616 -0.000000 -0.000001 0.000000 -47.783587 4.197424 30.477489 79.179904 8.237346 -7.644324 -13.543861 13.140297 -9.114893 -13.393102 -0.000012 0.000005 0.000000 -0.000004 0.000000 -4.107648 -27.394663 2.118777 41.595429 -1.379470 4.819274 -31.940994 -0.020080 1.814521 -4.127689 0.000008 0.000004 -0.000001 0.000001 0.000000 
